# MagicaVoxel @ Ephtracy

# material
mtllib StupidCar.mtl
usemtl palette

# normals
vn -1 0 0
vn 1 0 0
vn 0 0 1
vn 0 0 -1
vn 0 -1 0
vn 0 1 0

# texcoords
vt 0.0136719 0.5
vt 0.841797 0.5
vt 0.986328 0.5

# verts
v -10 2 19
v -10 2 -19
v -10 7 19
v -10 7 -19
v -9 1 19
v -9 1 -19
v -9 2 20
v -9 2 19
v -9 2 -19
v -9 2 -20
v -9 7 20
v -9 7 19
v -9 7 -19
v -9 7 -20
v -9 8 19
v -9 8 18
v -9 8 -18
v -9 8 -19
v -9 9 18
v -9 9 17
v -9 9 -17
v -9 9 -18
v -9 10 17
v -9 10 16
v -9 10 -16
v -9 10 -17
v -9 12 16
v -9 12 15
v -9 15 15
v -9 15 -16
v -8 0 18
v -8 0 -18
v -8 1 18
v -8 1 -18
v -8 15 14
v -8 15 -16
v -8 16 14
v -8 16 -16
v -7 16 14
v -7 16 -16
v -7 17 14
v -7 17 -16
v 3 0 10
v 3 0 -10
v 3 7 10
v 3 7 -10
v 5 0 18
v 5 0 10
v 5 0 -10
v 5 0 -18
v 5 1 19
v 5 1 18
v 5 1 -18
v 5 1 -19
v 5 2 20
v 5 2 19
v 5 2 -19
v 5 2 -20
v 5 7 20
v 5 7 19
v 5 7 10
v 5 7 -10
v 5 7 -19
v 5 7 -20
v -5 0 18
v -5 0 10
v -5 0 -10
v -5 0 -18
v -5 1 19
v -5 1 18
v -5 1 -18
v -5 1 -19
v -5 2 20
v -5 2 19
v -5 2 -19
v -5 2 -20
v -5 7 20
v -5 7 19
v -5 7 10
v -5 7 -10
v -5 7 -19
v -5 7 -20
v -3 0 10
v -3 0 -10
v -3 7 10
v -3 7 -10
v 7 16 14
v 7 16 -16
v 7 17 14
v 7 17 -16
v 8 0 18
v 8 0 -18
v 8 1 18
v 8 1 -18
v 8 15 14
v 8 15 -16
v 8 16 14
v 8 16 -16
v 9 1 19
v 9 1 -19
v 9 2 20
v 9 2 19
v 9 2 -19
v 9 2 -20
v 9 7 20
v 9 7 19
v 9 7 -19
v 9 7 -20
v 9 8 19
v 9 8 18
v 9 8 -18
v 9 8 -19
v 9 9 18
v 9 9 17
v 9 9 -17
v 9 9 -18
v 9 10 17
v 9 10 16
v 9 10 -16
v 9 10 -17
v 9 12 16
v 9 12 15
v 9 15 15
v 9 15 -16
v 10 2 19
v 10 2 -19
v 10 7 19
v 10 7 -19
v -9 2 20
v -9 7 20
v -8 3 20
v -8 6 20
v -6 3 20
v -6 6 20
v -5 2 20
v -5 7 20
v 5 2 20
v 5 7 20
v 6 3 20
v 6 6 20
v 8 3 20
v 8 6 20
v 9 2 20
v 9 7 20
v -10 2 19
v -10 7 19
v -9 1 19
v -9 2 19
v -9 7 19
v -9 8 19
v -5 1 19
v -5 2 19
v -5 7 19
v 5 1 19
v 5 2 19
v 5 7 19
v 9 1 19
v 9 2 19
v 9 7 19
v 9 8 19
v 10 2 19
v 10 7 19
v -9 8 18
v -9 9 18
v -8 0 18
v -8 1 18
v -5 0 18
v -5 1 18
v 5 0 18
v 5 1 18
v 8 0 18
v 8 1 18
v 9 8 18
v 9 9 18
v -9 9 17
v -9 10 17
v 9 9 17
v 9 10 17
v -9 10 16
v -9 12 16
v 9 10 16
v 9 12 16
v -9 12 15
v -9 15 15
v 9 12 15
v 9 15 15
v -8 15 14
v -8 16 14
v -7 16 14
v -7 17 14
v 7 16 14
v 7 17 14
v 8 15 14
v 8 16 14
v -5 0 10
v -5 7 10
v -3 0 10
v -3 7 10
v 3 0 10
v 3 7 10
v 5 0 10
v 5 7 10
v -5 0 -10
v -5 7 -10
v -3 0 -10
v -3 7 -10
v 3 0 -10
v 3 7 -10
v 5 0 -10
v 5 7 -10
v -9 10 -16
v -9 15 -16
v -8 15 -16
v -8 16 -16
v -7 16 -16
v -7 17 -16
v 7 16 -16
v 7 17 -16
v 8 15 -16
v 8 16 -16
v 9 10 -16
v 9 15 -16
v -9 9 -17
v -9 10 -17
v 9 9 -17
v 9 10 -17
v -9 8 -18
v -9 9 -18
v -8 0 -18
v -8 1 -18
v -5 0 -18
v -5 1 -18
v 5 0 -18
v 5 1 -18
v 8 0 -18
v 8 1 -18
v 9 8 -18
v 9 9 -18
v -10 2 -19
v -10 7 -19
v -9 1 -19
v -9 2 -19
v -9 7 -19
v -9 8 -19
v -5 1 -19
v -5 2 -19
v -5 7 -19
v 5 1 -19
v 5 2 -19
v 5 7 -19
v 9 1 -19
v 9 2 -19
v 9 7 -19
v 9 8 -19
v 10 2 -19
v 10 7 -19
v -9 2 -20
v -9 7 -20
v -8 3 -20
v -8 6 -20
v -6 3 -20
v -6 6 -20
v -5 2 -20
v -5 7 -20
v 5 2 -20
v 5 7 -20
v 6 3 -20
v 6 6 -20
v 8 3 -20
v 8 6 -20
v 9 2 -20
v 9 7 -20
v -8 0 18
v -5 0 18
v 5 0 18
v 8 0 18
v -5 0 10
v -3 0 10
v 3 0 10
v 5 0 10
v -5 0 -10
v -3 0 -10
v 3 0 -10
v 5 0 -10
v -8 0 -18
v -5 0 -18
v 5 0 -18
v 8 0 -18
v -9 1 19
v -5 1 19
v 5 1 19
v 9 1 19
v -8 1 18
v -5 1 18
v 5 1 18
v 8 1 18
v -8 1 -18
v -5 1 -18
v 5 1 -18
v 8 1 -18
v -9 1 -19
v -5 1 -19
v 5 1 -19
v 9 1 -19
v -9 2 20
v -5 2 20
v 5 2 20
v 9 2 20
v -10 2 19
v -9 2 19
v -5 2 19
v 5 2 19
v 9 2 19
v 10 2 19
v -10 2 -19
v -9 2 -19
v -5 2 -19
v 5 2 -19
v 9 2 -19
v 10 2 -19
v -9 2 -20
v -5 2 -20
v 5 2 -20
v 9 2 -20
v -5 7 19
v 5 7 19
v -5 7 10
v -3 7 10
v 3 7 10
v 5 7 10
v -5 7 -10
v -3 7 -10
v 3 7 -10
v 5 7 -10
v -5 7 -19
v 5 7 -19
v -9 7 20
v -5 7 20
v 5 7 20
v 9 7 20
v -10 7 19
v -9 7 19
v -5 7 19
v 5 7 19
v 9 7 19
v 10 7 19
v -10 7 -19
v -9 7 -19
v -5 7 -19
v 5 7 -19
v 9 7 -19
v 10 7 -19
v -9 7 -20
v -5 7 -20
v 5 7 -20
v 9 7 -20
v -9 8 19
v 9 8 19
v -9 8 18
v 9 8 18
v -9 8 -18
v 9 8 -18
v -9 8 -19
v 9 8 -19
v -9 9 18
v 9 9 18
v -9 9 17
v 9 9 17
v -9 9 -17
v 9 9 -17
v -9 9 -18
v 9 9 -18
v -9 10 17
v 9 10 17
v -9 10 16
v 9 10 16
v -9 10 -16
v 9 10 -16
v -9 10 -17
v 9 10 -17
v -9 12 16
v 9 12 16
v -9 12 15
v 9 12 15
v -9 15 15
v 9 15 15
v -8 15 14
v 8 15 14
v -9 15 -16
v -8 15 -16
v 8 15 -16
v 9 15 -16
v -8 16 14
v -7 16 14
v 7 16 14
v 8 16 14
v -8 16 -16
v -7 16 -16
v 7 16 -16
v 8 16 -16
v -7 17 14
v 7 17 14
v -7 17 -16
v 7 17 -16

# faces
f 3/3/1 2/3/1 1/3/1
f 4/3/1 2/3/1 3/3/1
f 8/3/1 6/3/1 5/3/1
f 9/3/1 6/3/1 8/3/1
f 11/3/1 8/3/1 7/3/1
f 12/3/1 8/3/1 11/3/1
f 13/3/1 10/3/1 9/3/1
f 14/3/1 10/3/1 13/3/1
f 15/3/1 13/3/1 12/3/1
f 16/3/1 13/3/1 15/3/1
f 17/3/1 13/3/1 16/3/1
f 18/3/1 13/3/1 17/3/1
f 19/3/1 17/3/1 16/3/1
f 20/3/1 17/3/1 19/3/1
f 21/3/1 17/3/1 20/3/1
f 22/3/1 17/3/1 21/3/1
f 23/3/1 21/3/1 20/3/1
f 24/3/1 21/3/1 23/3/1
f 25/3/1 21/3/1 24/3/1
f 26/3/1 21/3/1 25/3/1
f 27/3/1 25/3/1 24/3/1
f 28/3/1 25/3/1 27/3/1
f 29/3/1 25/3/1 28/3/1
f 30/3/1 25/3/1 29/3/1
f 33/3/1 32/3/1 31/3/1
f 34/3/1 32/3/1 33/3/1
f 37/3/1 36/3/1 35/3/1
f 38/3/1 36/3/1 37/3/1
f 41/3/1 40/3/1 39/3/1
f 42/3/1 40/3/1 41/3/1
f 45/3/1 44/3/1 43/3/1
f 46/3/1 44/3/1 45/3/1
f 52/3/1 48/3/1 47/3/1
f 53/3/1 50/3/1 49/3/1
f 56/3/1 52/3/1 51/3/1
f 57/3/1 54/3/1 53/3/1
f 59/3/1 56/3/1 55/3/1
f 60/3/1 52/3/1 56/3/1
f 60/3/1 56/3/1 59/3/1
f 61/3/1 48/3/1 52/3/1
f 61/3/1 52/3/1 60/3/1
f 62/3/1 58/3/1 57/3/1
f 62/3/1 53/3/1 49/3/1
f 62/3/1 57/3/1 53/3/1
f 63/3/1 58/3/1 62/3/1
f 64/3/1 58/3/1 63/3/1
f 65/3/2 66/3/2 70/3/2
f 67/3/2 68/3/2 71/3/2
f 69/3/2 70/3/2 74/3/2
f 71/3/2 72/3/2 75/3/2
f 73/3/2 74/3/2 77/3/2
f 74/3/2 70/3/2 78/3/2
f 77/3/2 74/3/2 78/3/2
f 70/3/2 66/3/2 79/3/2
f 78/3/2 70/3/2 79/3/2
f 75/3/2 76/3/2 80/3/2
f 67/3/2 71/3/2 80/3/2
f 71/3/2 75/3/2 80/3/2
f 80/3/2 76/3/2 81/3/2
f 81/3/2 76/3/2 82/3/2
f 83/3/2 84/3/2 85/3/2
f 85/3/2 84/3/2 86/3/2
f 87/3/2 88/3/2 89/3/2
f 89/3/2 88/3/2 90/3/2
f 91/3/2 92/3/2 93/3/2
f 93/3/2 92/3/2 94/3/2
f 95/3/2 96/3/2 97/3/2
f 97/3/2 96/3/2 98/3/2
f 99/3/2 100/3/2 102/3/2
f 102/3/2 100/3/2 103/3/2
f 101/3/2 102/3/2 105/3/2
f 105/3/2 102/3/2 106/3/2
f 103/3/2 104/3/2 107/3/2
f 107/3/2 104/3/2 108/3/2
f 106/3/2 107/3/2 109/3/2
f 109/3/2 107/3/2 110/3/2
f 110/3/2 107/3/2 111/3/2
f 111/3/2 107/3/2 112/3/2
f 110/3/2 111/3/2 113/3/2
f 113/3/2 111/3/2 114/3/2
f 114/3/2 111/3/2 115/3/2
f 115/3/2 111/3/2 116/3/2
f 114/3/2 115/3/2 117/3/2
f 117/3/2 115/3/2 118/3/2
f 118/3/2 115/3/2 119/3/2
f 119/3/2 115/3/2 120/3/2
f 118/3/2 119/3/2 121/3/2
f 121/3/2 119/3/2 122/3/2
f 122/3/2 119/3/2 123/3/2
f 123/3/2 119/3/2 124/3/2
f 125/3/2 126/3/2 127/3/2
f 127/3/2 126/3/2 128/3/2
f 131/3/3 130/3/3 129/3/3
f 132/3/3 130/3/3 131/3/3
f 133/3/3 131/3/3 129/3/3
f 133/1/3 132/1/3 131/1/3
f 134/3/3 130/3/3 132/3/3
f 134/1/3 132/1/3 133/1/3
f 135/3/3 133/3/3 129/3/3
f 135/3/3 134/3/3 133/3/3
f 136/3/3 130/3/3 134/3/3
f 136/3/3 134/3/3 135/3/3
f 139/3/3 138/3/3 137/3/3
f 140/3/3 138/3/3 139/3/3
f 141/3/3 139/3/3 137/3/3
f 141/1/3 140/1/3 139/1/3
f 142/3/3 138/3/3 140/3/3
f 142/1/3 140/1/3 141/1/3
f 143/3/3 141/3/3 137/3/3
f 143/3/3 142/3/3 141/3/3
f 144/3/3 138/3/3 142/3/3
f 144/3/3 142/3/3 143/3/3
f 148/3/3 146/3/3 145/3/3
f 149/3/3 146/3/3 148/3/3
f 151/3/3 148/3/3 147/3/3
f 152/3/3 148/3/3 151/3/3
f 153/3/3 150/3/3 149/3/3
f 156/3/3 150/3/3 153/3/3
f 157/3/3 155/3/3 154/3/3
f 158/3/3 155/3/3 157/3/3
f 159/3/3 150/3/3 156/3/3
f 160/3/3 150/3/3 159/3/3
f 161/3/3 159/3/3 158/3/3
f 162/3/3 159/3/3 161/3/3
f 167/3/3 166/3/3 165/3/3
f 168/3/3 166/3/3 167/3/3
f 171/3/3 170/3/3 169/3/3
f 172/3/3 170/3/3 171/3/3
f 173/3/3 164/3/3 163/3/3
f 174/3/3 164/3/3 173/3/3
f 177/3/3 176/3/3 175/3/3
f 178/3/3 176/3/3 177/3/3
f 181/3/3 180/3/3 179/3/3
f 182/3/3 180/3/3 181/3/3
f 185/3/3 184/3/3 183/3/3
f 186/3/3 184/3/3 185/3/3
f 189/3/3 188/3/3 187/3/3
f 191/3/3 189/3/3 187/3/3
f 191/3/3 190/3/3 189/3/3
f 192/3/3 190/3/3 191/3/3
f 193/3/3 191/3/3 187/3/3
f 194/3/3 191/3/3 193/3/3
f 197/3/3 196/3/3 195/3/3
f 198/3/3 196/3/3 197/3/3
f 201/3/3 200/3/3 199/3/3
f 202/3/3 200/3/3 201/3/3
f 203/3/4 204/3/4 205/3/4
f 205/3/4 204/3/4 206/3/4
f 207/3/4 208/3/4 209/3/4
f 209/3/4 208/3/4 210/3/4
f 211/3/4 212/3/4 213/3/4
f 213/3/4 214/3/4 215/3/4
f 213/3/4 215/3/4 217/3/4
f 215/3/4 216/3/4 217/3/4
f 217/3/4 216/3/4 218/3/4
f 211/3/4 213/3/4 219/3/4
f 213/3/4 217/3/4 219/3/4
f 219/3/4 217/3/4 220/3/4
f 211/3/4 219/3/4 221/3/4
f 221/3/4 219/3/4 222/3/4
f 223/3/4 224/3/4 225/3/4
f 225/3/4 224/3/4 226/3/4
f 229/3/4 230/3/4 231/3/4
f 231/3/4 230/3/4 232/3/4
f 233/3/4 234/3/4 235/3/4
f 235/3/4 234/3/4 236/3/4
f 227/3/4 228/3/4 237/3/4
f 237/3/4 228/3/4 238/3/4
f 239/3/4 240/3/4 242/3/4
f 242/3/4 240/3/4 243/3/4
f 241/3/4 242/3/4 245/3/4
f 245/3/4 242/3/4 246/3/4
f 243/3/4 244/3/4 247/3/4
f 247/3/4 244/3/4 250/3/4
f 248/3/4 249/3/4 251/3/4
f 251/3/4 249/3/4 252/3/4
f 250/3/4 244/3/4 253/3/4
f 253/3/4 244/3/4 254/3/4
f 252/3/4 253/3/4 255/3/4
f 255/3/4 253/3/4 256/3/4
f 257/3/4 258/3/4 259/3/4
f 259/3/4 258/3/4 260/3/4
f 257/3/4 259/3/4 261/3/4
f 259/2/4 260/2/4 261/2/4
f 260/3/4 258/3/4 262/3/4
f 261/2/4 260/2/4 262/2/4
f 257/3/4 261/3/4 263/3/4
f 261/3/4 262/3/4 263/3/4
f 262/3/4 258/3/4 264/3/4
f 263/3/4 262/3/4 264/3/4
f 265/3/4 266/3/4 267/3/4
f 267/3/4 266/3/4 268/3/4
f 265/3/4 267/3/4 269/3/4
f 267/2/4 268/2/4 269/2/4
f 268/3/4 266/3/4 270/3/4
f 269/2/4 268/2/4 270/2/4
f 265/3/4 269/3/4 271/3/4
f 269/3/4 270/3/4 271/3/4
f 270/3/4 266/3/4 272/3/4
f 271/3/4 270/3/4 272/3/4
f 277/3/5 274/3/5 273/3/5
f 280/3/5 276/3/5 275/3/5
f 281/3/5 278/3/5 277/3/5
f 281/3/5 277/3/5 273/3/5
f 282/3/5 278/3/5 281/3/5
f 283/3/5 280/3/5 279/3/5
f 284/3/5 276/3/5 280/3/5
f 284/3/5 280/3/5 283/3/5
f 285/3/5 281/3/5 273/3/5
f 286/3/5 281/3/5 285/3/5
f 287/3/5 276/3/5 284/3/5
f 288/3/5 276/3/5 287/3/5
f 293/3/5 290/3/5 289/3/5
f 294/3/5 290/3/5 293/3/5
f 295/3/5 292/3/5 291/3/5
f 296/3/5 292/3/5 295/3/5
f 297/3/5 293/3/5 289/3/5
f 300/3/5 292/3/5 296/3/5
f 301/3/5 298/3/5 297/3/5
f 301/3/5 297/3/5 289/3/5
f 302/3/5 298/3/5 301/3/5
f 303/3/5 300/3/5 299/3/5
f 304/3/5 292/3/5 300/3/5
f 304/3/5 300/3/5 303/3/5
f 310/3/5 306/3/5 305/3/5
f 311/3/5 306/3/5 310/3/5
f 312/3/5 308/3/5 307/3/5
f 313/3/5 308/3/5 312/3/5
f 315/3/5 310/3/5 309/3/5
f 316/3/5 310/3/5 315/3/5
f 319/3/5 314/3/5 313/3/5
f 320/3/5 314/3/5 319/3/5
f 321/3/5 317/3/5 316/3/5
f 322/3/5 317/3/5 321/3/5
f 323/3/5 319/3/5 318/3/5
f 324/3/5 319/3/5 323/3/5
f 327/3/5 326/3/5 325/3/5
f 328/3/5 326/3/5 327/3/5
f 329/3/5 326/3/5 328/3/5
f 330/3/5 326/3/5 329/3/5
f 332/3/5 329/3/5 328/3/5
f 333/3/5 329/3/5 332/3/5
f 335/3/5 332/3/5 331/3/5
f 335/3/5 334/3/5 333/3/5
f 335/3/5 333/3/5 332/3/5
f 336/3/5 334/3/5 335/3/5
f 337/3/6 338/3/6 342/3/6
f 342/3/6 338/3/6 343/3/6
f 339/3/6 340/3/6 344/3/6
f 344/3/6 340/3/6 345/3/6
f 341/3/6 342/3/6 347/3/6
f 347/3/6 342/3/6 348/3/6
f 345/3/6 346/3/6 351/3/6
f 351/3/6 346/3/6 352/3/6
f 348/3/6 349/3/6 353/3/6
f 353/3/6 349/3/6 354/3/6
f 350/3/6 351/3/6 355/3/6
f 355/3/6 351/3/6 356/3/6
f 357/3/6 358/3/6 359/3/6
f 359/3/6 358/3/6 360/3/6
f 361/3/6 362/3/6 363/3/6
f 363/3/6 362/3/6 364/3/6
f 365/3/6 366/3/6 367/3/6
f 367/3/6 366/3/6 368/3/6
f 369/3/6 370/3/6 371/3/6
f 371/3/6 370/3/6 372/3/6
f 373/3/6 374/3/6 375/3/6
f 375/3/6 374/3/6 376/3/6
f 377/3/6 378/3/6 379/3/6
f 379/3/6 378/3/6 380/3/6
f 381/3/6 382/3/6 383/3/6
f 383/3/6 382/3/6 384/3/6
f 385/3/6 386/3/6 387/3/6
f 387/3/6 386/3/6 388/3/6
f 385/3/6 387/3/6 389/3/6
f 389/3/6 387/3/6 390/3/6
f 388/3/6 386/3/6 391/3/6
f 391/3/6 386/3/6 392/3/6
f 393/3/6 394/3/6 397/3/6
f 397/3/6 394/3/6 398/3/6
f 395/3/6 396/3/6 399/3/6
f 399/3/6 396/3/6 400/3/6
f 401/3/6 402/3/6 403/3/6
f 403/3/6 402/3/6 404/3/6
